<svg xmlns="http://www.w3.org/2000/svg">

   <symbol viewBox="0 0 137 24" id="logo">
    <path

            d="M119.711 3.99801H124.151V8.12601L123.983 8.70201V12.254L124.151 13.31V21.638H119.711V3.99801ZM122.687 10.838C122.927 9.36601 123.383 8.09401 124.055 7.02201C124.727 5.95001 125.575 5.11801 126.599 4.52601C127.639 3.91801 128.791 3.61401 130.055 3.61401C131.399 3.61401 132.575 3.91801 133.583 4.52601C134.607 5.13401 135.407 5.98201 135.983 7.07001C136.559 8.14201 136.847 9.39801 136.847 10.838C136.847 12.278 136.559 13.542 135.983 14.63C135.407 15.702 134.607 16.542 133.583 17.15C132.575 17.758 131.399 18.062 130.055 18.062C128.775 18.062 127.623 17.766 126.599 17.174C125.591 16.566 124.751 15.726 124.079 14.654C123.407 13.566 122.943 12.294 122.687 10.838ZM132.335 10.838C132.335 10.102 132.183 9.45401 131.879 8.89401C131.575 8.31801 131.151 7.87001 130.607 7.55001C130.079 7.21401 129.471 7.04601 128.783 7.04601C128.079 7.04601 127.407 7.21401 126.767 7.55001C126.127 7.87001 125.567 8.31801 125.087 8.89401C124.623 9.45401 124.263 10.102 124.007 10.838C124.263 11.574 124.623 12.23 125.087 12.806C125.567 13.366 126.127 13.814 126.767 14.15C127.407 14.47 128.079 14.63 128.783 14.63C129.471 14.63 130.079 14.47 130.607 14.15C131.151 13.814 131.575 13.366 131.879 12.806C132.183 12.23 132.335 11.574 132.335 10.838Z"

          ></path>
          <path
            d="M100.328 3.99801H104.768V8.12601L104.6 8.70201V12.254L104.768 13.31V21.638H100.328V3.99801ZM103.304 10.838C103.544 9.36601 104 8.09401 104.672 7.02201C105.344 5.95001 106.192 5.11801 107.216 4.52601C108.256 3.91801 109.408 3.61401 110.672 3.61401C112.016 3.61401 113.192 3.91801 114.2 4.52601C115.224 5.13401 116.024 5.98201 116.6 7.07001C117.176 8.14201 117.464 9.39801 117.464 10.838C117.464 12.278 117.176 13.542 116.6 14.63C116.024 15.702 115.224 16.542 114.2 17.15C113.192 17.758 112.016 18.062 110.672 18.062C109.392 18.062 108.24 17.766 107.216 17.174C106.208 16.566 105.368 15.726 104.696 14.654C104.024 13.566 103.56 12.294 103.304 10.838ZM112.952 10.838C112.952 10.102 112.8 9.45401 112.496 8.89401C112.192 8.31801 111.768 7.87001 111.224 7.55001C110.696 7.21401 110.088 7.04601 109.4 7.04601C108.696 7.04601 108.024 7.21401 107.384 7.55001C106.744 7.87001 106.184 8.31801 105.704 8.89401C105.24 9.45401 104.88 10.102 104.624 10.838C104.88 11.574 105.24 12.23 105.704 12.806C106.184 13.366 106.744 13.814 107.384 14.15C108.024 14.47 108.696 14.63 109.4 14.63C110.088 14.63 110.696 14.47 111.224 14.15C111.768 13.814 112.192 13.366 112.496 12.806C112.8 12.23 112.952 11.574 112.952 10.838Z"

          ></path>
          <path
            d="M93.1659 17.678L92.5659 12.71L93.2139 10.838L92.5659 8.99001L93.1659 3.99801H97.7979L96.9579 10.838L97.7979 17.678H93.1659ZM94.2699 10.838C94.0299 12.294 93.5739 13.566 92.9019 14.654C92.2299 15.726 91.3819 16.566 90.3579 17.174C89.3339 17.766 88.1819 18.062 86.9019 18.062C85.5579 18.062 84.3739 17.758 83.3499 17.15C82.3419 16.542 81.5499 15.702 80.9739 14.63C80.3979 13.542 80.1099 12.278 80.1099 10.838C80.1099 9.39801 80.3979 8.14201 80.9739 7.07001C81.5499 5.98201 82.3419 5.13401 83.3499 4.52601C84.3739 3.91801 85.5579 3.61401 86.9019 3.61401C88.1819 3.61401 89.3339 3.91801 90.3579 4.52601C91.3819 5.11801 92.2299 5.95001 92.9019 7.02201C93.5899 8.09401 94.0459 9.36601 94.2699 10.838ZM84.6219 10.838C84.6219 11.574 84.7739 12.23 85.0779 12.806C85.3819 13.366 85.7979 13.814 86.3259 14.15C86.8699 14.47 87.4939 14.63 88.1979 14.63C88.9019 14.63 89.5659 14.47 90.1899 14.15C90.8299 13.814 91.3899 13.366 91.8699 12.806C92.3499 12.23 92.7099 11.574 92.9499 10.838C92.7099 10.102 92.3499 9.45401 91.8699 8.89401C91.3899 8.31801 90.8299 7.87001 90.1899 7.55001C89.5659 7.21401 88.9019 7.04601 88.1979 7.04601C87.4939 7.04601 86.8699 7.21401 86.3259 7.55001C85.7979 7.87001 85.3819 8.31801 85.0779 8.89401C84.7739 9.45401 84.6219 10.102 84.6219 10.838Z"

          ></path>
          <path
            d="M69.8582 18.062C68.1302 18.062 66.6182 17.758 65.3222 17.15C64.0262 16.542 63.0182 15.694 62.2982 14.606C61.5782 13.518 61.2182 12.262 61.2182 10.838C61.2182 9.39801 61.5782 8.14201 62.2982 7.07001C63.0182 5.98201 64.0262 5.13401 65.3222 4.52601C66.6342 3.91801 68.1462 3.61401 69.8582 3.61401C71.5862 3.61401 73.0982 3.91801 74.3942 4.52601C75.7062 5.13401 76.7222 5.98201 77.4422 7.07001C78.1622 8.14201 78.5222 9.39801 78.5222 10.838C78.5222 12.278 78.1622 13.542 77.4422 14.63C76.7222 15.702 75.7062 16.542 74.3942 17.15C73.0982 17.758 71.5862 18.062 69.8582 18.062ZM69.8582 14.702C70.7382 14.702 71.4822 14.55 72.0902 14.246C72.7142 13.926 73.1862 13.478 73.5062 12.902C73.8422 12.326 74.0102 11.638 74.0102 10.838C74.0102 10.038 73.8422 9.35001 73.5062 8.77401C73.1862 8.19801 72.7142 7.75801 72.0902 7.45401C71.4822 7.13401 70.7382 6.97401 69.8582 6.97401C69.0102 6.97401 68.2742 7.13401 67.6502 7.45401C67.0262 7.75801 66.5462 8.19801 66.2102 8.77401C65.8742 9.35001 65.7062 10.038 65.7062 10.838C65.7062 11.638 65.8742 12.326 66.2102 12.902C66.5462 13.478 67.0262 13.926 67.6502 14.246C68.2742 14.55 69.0102 14.702 69.8582 14.702Z"

          ></path>
          <path
            d="M46.8358 7.30998V5.36598L49.6678 4.33398L51.5878 0.349976H54.1318V3.99798H60.0358V7.30998H54.1318V11.822C54.1318 12.846 54.3398 13.566 54.7558 13.982C55.1718 14.382 55.9158 14.582 56.9878 14.582C57.6758 14.582 58.2758 14.526 58.7878 14.414C59.3158 14.286 59.8118 14.118 60.2758 13.91V17.294C59.7958 17.486 59.1638 17.662 58.3798 17.822C57.6118 17.982 56.8118 18.062 55.9798 18.062C54.5238 18.062 53.3238 17.83 52.3798 17.366C51.4518 16.902 50.7638 16.254 50.3158 15.422C49.8838 14.574 49.6678 13.582 49.6678 12.446V7.30998H46.8358Z"

          ></path>
          <path
            d="M46.1263 13.286C46.1263 14.31 45.8223 15.182 45.2143 15.902C44.6223 16.606 43.7503 17.142 42.5983 17.51C41.4463 17.878 40.0463 18.062 38.3983 18.062C36.7183 18.062 35.2463 17.854 33.9823 17.438C32.7183 17.022 31.7343 16.438 31.0303 15.686C30.3263 14.934 29.9503 14.062 29.9023 13.07H34.4383C34.5343 13.47 34.7583 13.822 35.1103 14.126C35.4783 14.43 35.9503 14.662 36.5263 14.822C37.1023 14.966 37.7823 15.038 38.5663 15.038C39.6223 15.038 40.4223 14.926 40.9663 14.702C41.5103 14.478 41.7823 14.142 41.7823 13.694C41.7823 13.358 41.5823 13.102 41.1823 12.926C40.7983 12.75 40.1023 12.622 39.0943 12.542L36.5983 12.35C35.0303 12.238 33.7823 11.99 32.8543 11.606C31.9263 11.222 31.2623 10.734 30.8623 10.142C30.4783 9.55002 30.2863 8.88601 30.2863 8.15001C30.2863 7.14201 30.5983 6.30201 31.2223 5.63001C31.8623 4.95801 32.7423 4.45401 33.8623 4.11802C34.9823 3.78201 36.2943 3.61401 37.7983 3.61401C39.3023 3.61401 40.6383 3.81401 41.8063 4.21401C42.9903 4.61401 43.9343 5.16601 44.6383 5.87001C45.3583 6.57401 45.7663 7.39801 45.8623 8.34201H41.3263C41.2623 8.02201 41.0863 7.72601 40.7983 7.45401C40.5263 7.18201 40.1263 6.96601 39.5983 6.80602C39.0863 6.63001 38.4143 6.54201 37.5823 6.54201C36.6383 6.54201 35.9183 6.64601 35.4223 6.85401C34.9263 7.06201 34.6783 7.36601 34.6783 7.76601C34.6783 8.07001 34.8303 8.31001 35.1343 8.48601C35.4383 8.66201 36.0143 8.79001 36.8623 8.87001L40.1023 9.11001C41.6383 9.23801 42.8383 9.48602 43.7023 9.85402C44.5823 10.206 45.2063 10.67 45.5743 11.246C45.9423 11.822 46.1263 12.502 46.1263 13.286Z"

          ></path>
          <path
            d="M21.1054 18.062C19.4734 18.062 18.0094 17.758 16.7134 17.15C15.4334 16.542 14.4254 15.694 13.6894 14.606C12.9534 13.518 12.5854 12.246 12.5854 10.79C12.5854 9.36601 12.9374 8.11801 13.6414 7.04601C14.3454 5.97401 15.3134 5.13401 16.5454 4.52601C17.7934 3.91801 19.2014 3.61401 20.7694 3.61401C22.3694 3.61401 23.7454 3.96601 24.8974 4.67001C26.0494 5.37401 26.9374 6.36601 27.5614 7.64601C28.1854 8.92601 28.4974 10.43 28.4974 12.158H16.1614V9.35001H26.0494L24.4414 10.358C24.3934 9.60601 24.2094 8.97401 23.8894 8.46202C23.5854 7.93401 23.1774 7.53401 22.6654 7.26201C22.1534 6.97401 21.5454 6.83001 20.8414 6.83001C20.0734 6.83001 19.4094 6.98201 18.8494 7.28601C18.2894 7.59001 17.8494 8.01401 17.5294 8.55801C17.2254 9.10201 17.0734 9.73401 17.0734 10.454C17.0734 11.366 17.2734 12.142 17.6734 12.782C18.0894 13.422 18.6814 13.91 19.4494 14.246C20.2334 14.582 21.1854 14.75 22.3054 14.75C23.3294 14.75 24.3534 14.614 25.3774 14.342C26.4014 14.054 27.3214 13.654 28.1374 13.142V16.046C27.2094 16.686 26.1454 17.182 24.9454 17.534C23.7614 17.886 22.4814 18.062 21.1054 18.062Z"

          ></path>
          <path
            d="M0 3.99801H4.512L5.328 8.91801V17.678H0.864V8.55801L0 3.99801ZM11.856 3.80602V7.64601C11.424 7.55001 10.992 7.47801 10.56 7.43001C10.144 7.38201 9.76 7.35802 9.408 7.35802C8.64 7.35802 7.944 7.51801 7.32 7.83801C6.712 8.14201 6.224 8.63001 5.856 9.30201C5.504 9.97401 5.328 10.846 5.328 11.918L4.44 10.814C4.552 9.83801 4.736 8.91801 4.992 8.05401C5.248 7.19001 5.6 6.43001 6.048 5.77401C6.496 5.10201 7.048 4.57401 7.704 4.19001C8.376 3.80601 9.184 3.61401 10.128 3.61401C10.4 3.61401 10.688 3.63001 10.992 3.66201C11.296 3.69401 11.584 3.74201 11.856 3.80602Z"

          ></path>
  </symbol>

  <symbol viewBox="0 0 16 20" id="stroke">
    <path fill-rule="evenodd" clip-rule="evenodd"
      d="M8.00002 1.84999C6.26033 1.84999 4.85002 3.2603 4.85002 4.99999C4.85002 6.73969 6.26033 8.14999 8.00002 8.14999C9.73972 8.14999 11.15 6.73969 11.15 4.99999C11.15 3.2603 9.73972 1.84999 8.00002 1.84999ZM3.15002 4.99999C3.15002 2.32141 5.32144 0.149994 8.00002 0.149994C10.6786 0.149994 12.85 2.32141 12.85 4.99999C12.85 7.67858 10.6786 9.84999 8.00002 9.84999C5.32144 9.84999 3.15002 7.67858 3.15002 4.99999ZM3.43041 13.7854C2.25402 14.3736 1.85002 15.0289 1.85002 15.5C1.85002 15.9711 2.25402 16.6264 3.43041 17.2146C4.55596 17.7774 6.17037 18.15 8.00002 18.15C9.82968 18.15 11.4441 17.7774 12.5696 17.2146C13.746 16.6264 14.15 15.9711 14.15 15.5C14.15 15.0289 13.746 14.3736 12.5696 13.7854C11.4441 13.2226 9.82968 12.85 8.00002 12.85C6.17037 12.85 4.55596 13.2226 3.43041 13.7854ZM2.67015 12.2649C4.0781 11.5609 5.96368 11.15 8.00002 11.15C10.0364 11.15 11.922 11.5609 13.3299 12.2649C14.687 12.9434 15.85 14.0381 15.85 15.5C15.85 16.9619 14.687 18.0566 13.3299 18.7351C11.922 19.4391 10.0364 19.85 8.00002 19.85C5.96368 19.85 4.0781 19.4391 2.67015 18.7351C1.31304 18.0566 0.150024 16.9619 0.150024 15.5C0.150024 14.0381 1.31304 12.9434 2.67015 12.2649Z"
      ></path>
  </symbol>

  <symbol viewBox="0 0 18 18" id="basket">
    <path
      d="M17.0343 3.05767C16.8234 2.80451 16.5593 2.6009 16.2607 2.4613C15.9622 2.3217 15.6367 2.24954 15.3071 2.24994H3.18142L3.14992 1.9867C3.08546 1.43953 2.82247 0.935026 2.41081 0.568844C1.99915 0.202662 1.46743 0.000256339 0.916477 0L0.749981 0C0.551074 0 0.360313 0.0790157 0.219664 0.219664C0.0790157 0.360313 0 0.551074 0 0.749981C0 0.948889 0.0790157 1.13965 0.219664 1.2803C0.360313 1.42095 0.551074 1.49996 0.749981 1.49996H0.916477C1.10017 1.49999 1.27747 1.56743 1.41474 1.68949C1.55202 1.81156 1.63972 1.97976 1.66121 2.1622L2.69318 10.937C2.80032 11.8495 3.23878 12.691 3.92533 13.3017C4.61189 13.9123 5.49875 14.2497 6.41759 14.2496H14.2496C14.4485 14.2496 14.6393 14.1706 14.78 14.03C14.9206 13.8893 14.9996 13.6986 14.9996 13.4997C14.9996 13.3008 14.9206 13.11 14.78 12.9693C14.6393 12.8287 14.4485 12.7497 14.2496 12.7497H6.41759C5.95339 12.7484 5.50096 12.6035 5.12232 12.335C4.74368 12.0664 4.45737 11.6874 4.30264 11.2497H13.2424C14.1216 11.2498 14.9729 10.9409 15.6475 10.3771C16.3221 9.81324 16.7771 9.0303 16.9331 8.16504L17.5218 4.89963C17.5806 4.57564 17.5674 4.24269 17.4831 3.92438C17.3989 3.60607 17.2457 3.31017 17.0343 3.05767ZM16.0496 4.63338L15.4601 7.8988C15.3665 8.41854 15.093 8.88877 14.6875 9.22717C14.2821 9.56556 13.7705 9.75056 13.2424 9.74975H4.06415L3.35842 3.74991H15.3071C15.4173 3.74925 15.5263 3.77287 15.6263 3.8191C15.7263 3.86532 15.8149 3.93301 15.8857 4.01735C15.9566 4.1017 16.0081 4.20062 16.0364 4.30709C16.0647 4.41357 16.0692 4.52497 16.0496 4.63338Z"
      ></path>
    <path
      d="M5.24996 18C6.07836 18 6.74992 17.3284 6.74992 16.5C6.74992 15.6716 6.07836 15.0001 5.24996 15.0001C4.42155 15.0001 3.75 15.6716 3.75 16.5C3.75 17.3284 4.42155 18 5.24996 18Z"
     ></path>
    <path
      d="M12.7497 18C13.5781 18 14.2496 17.3284 14.2496 16.5C14.2496 15.6716 13.5781 15.0001 12.7497 15.0001C11.9212 15.0001 11.2497 15.6716 11.2497 16.5C11.2497 17.3284 11.9212 18 12.7497 18Z"
      ></path>
  </symbol>

   <symbol viewBox="0 0 36 36" id="fish">
      <path
    d="M0 8C0 3.58172 3.58172 0 8 0H28C32.4183 0 36 3.58172 36 8V28C36 32.4183 32.4183 36 28 36H8C3.58172 36 0 32.4183 0 28V8Z"
    fill="#0094E4"
  />
  <path
    d="M17.3282 13.5117C15.4867 13.6502 13.7099 14.2505 12.1617 15.2572C12.3642 14.4505 12.7929 13.7185 13.3975 13.1474C14.002 12.5762 14.7572 12.1897 15.5741 12.0334C15.7902 11.9899 16.0134 11.9958 16.227 12.0505C16.4406 12.1052 16.639 12.2075 16.8076 12.3495C16.9762 12.4916 17.1106 12.6699 17.2007 12.8711C17.2909 13.0724 17.3344 13.2913 17.3282 13.5117ZM25.7584 13.4964C25.5164 13.1653 25.2095 12.8871 24.8563 12.6786C24.5032 12.4701 24.1113 12.3358 23.7045 12.2839C23.6526 11.8771 23.5183 11.4852 23.3098 11.1321C23.1013 10.7789 22.8231 10.472 22.492 10.23C22.3222 10.1022 22.1202 10.0242 21.9086 10.0048C21.697 9.98532 21.4841 10.0252 21.2939 10.1198C21.1036 10.2145 20.9435 10.3603 20.8314 10.5408C20.7193 10.7213 20.6597 10.9295 20.6592 11.142V14.6629C15.6513 14.6629 12.794 15.6203 11.3077 18.1232C12.8849 18.5352 14.3237 19.3605 15.4756 20.5138C16.6276 21.6672 17.4511 23.107 17.8612 24.6847C20.3668 23.1991 21.3255 20.341 21.3255 15.3291L24.8464 15.3291C25.0589 15.3287 25.267 15.2691 25.4476 15.157C25.6281 15.0449 25.7739 14.8848 25.8686 14.6945C25.9632 14.5043 26.0031 14.2914 25.9836 14.0798C25.9642 13.8682 25.8862 13.6662 25.7584 13.4964ZM22.7911 18.6602H22.4747C22.3742 19.5629 22.1929 20.4547 21.933 21.325H22.4753C24.1322 21.3763 24.6645 18.7428 22.7911 18.6602ZM16.6293 25.263C15.0304 25.7213 12.2743 26.6907 10.78 25.2084C10.5117 24.9408 10.3037 24.6189 10.1702 24.2643C10.0367 23.9096 9.98065 23.5305 10.0059 23.1524C10.0677 21.8593 10.3101 20.5811 10.7261 19.355C12.1683 19.6802 13.4887 20.4079 14.5337 21.4537C15.5787 22.4996 16.3054 23.8205 16.6293 25.263ZM13.3309 23.3237C13.3309 23.147 13.2608 22.9775 13.1358 22.8526C13.0109 22.7276 12.8414 22.6574 12.6647 22.6574C12.488 22.6574 12.3186 22.7276 12.1937 22.8526C12.0687 22.9775 11.9985 23.147 11.9985 23.3237C11.9985 23.5003 12.0687 23.6698 12.1937 23.7947C12.3186 23.9197 12.488 23.9899 12.6647 23.9899C12.8414 23.9899 13.0109 23.9197 13.1358 23.7947C13.2608 23.6698 13.3309 23.5003 13.3309 23.3237Z"
    fill="white"
  />
  </symbol>



  <symbol viewBox="0 0 36 36" id="hot">
   <path
    d="M0 8C0 3.58172 3.58172 0 8 0H28C32.4183 0 36 3.58172 36 8V28C36 32.4183 32.4183 36 28 36H8C3.58172 36 0 32.4183 0 28V8Z"
    fill="#FC7D04"
  />
  <path
    d="M20.3336 18.2222V15.4183L18.6851 14.6614C16.8575 16.8359 16.1744 22.4999 11.7498 22.4999C11.2857 22.4999 10.8405 22.6842 10.5123 23.0124C10.1841 23.3406 9.99976 23.7858 9.99976 24.2499C9.99976 24.7141 10.1841 25.1592 10.5123 25.4874C10.8405 25.8156 11.2857 26 11.7498 26C18.3951 26 23.3331 22.1602 24.8497 19.4266L23.6919 18.2222H20.3336ZM24.4304 14.2104C25.4354 12.3404 24.9123 10.8269 24.3322 10.0931C24.3101 10.0656 24.2824 10.0432 24.251 10.0272C24.2196 10.0112 24.1852 10.002 24.1499 10.0003C24.1147 9.99856 24.0796 10.0043 24.0467 10.0171C24.0139 10.0299 23.9841 10.0495 23.9594 10.0747L23.2437 10.7934C23.2027 10.8352 23.1774 10.8899 23.1723 10.9483C23.1673 11.0066 23.1827 11.0649 23.2159 11.1131C23.4303 11.4369 23.7488 12.2101 23.1722 13.3732C22.6088 13.127 22.0007 12.9997 21.3859 12.9995C20.5108 12.9995 19.6983 13.2663 19.0001 13.7054L21.3337 14.777V17.2221H24.1178L25.8267 18.9997C25.9285 18.6053 26.0004 18.1987 26.0004 17.7712C26.001 17.1011 25.8617 16.4382 25.5913 15.8251C25.321 15.2119 24.9255 14.662 24.4304 14.2104Z"
    fill="white"
  />
  </symbol>

  <symbol viewBox="0 0 36 36" id="vegetarian">
    <path
     d="M0 8C0 3.58172 3.58172 0 8 0H28C32.4183 0 36 3.58172 36 8V28C36 32.4183 32.4183 36 28 36H8C3.58172 36 0 32.4183 0 28V8Z" fill="#1DAA0F"/>

<path d="M26 11C26 14.55 23.3562 17.4844 19.9312 17.9375C19.7094 16.2688 18.975 14.7625 17.8906 13.5844C19.0875 11.4469 21.375 10 24 10H25C25.5531 10 26 10.4469 26 11ZM10 13C10 12.4469 10.4469 12 11 12H12C15.8656 12 19 15.1344 19 19V20V25C19 25.5531 18.5531 26 18 26C17.4469 26 17 25.5531 17 25V20C13.1344 20 10 16.8656 10 13Z" fill="white"/>
  </symbol>

 <symbol viewBox="0 0 24 24" id="x-mark">
    <path
      d="M22 12C22 17.5228 17.5228 22 12 22C6.47715 22 2 17.5228 2 12C2 6.47715 6.47715 2 12 2C17.5228 2 22 6.47715 22 12Z"
      fill="#393939"></path>
    <path
      d="M14.2982 15.3587C14.5911 15.6516 15.0659 15.6516 15.3588 15.3587C15.6517 15.0658 15.6517 14.5909 15.3588 14.298L13.0608 12L15.3588 9.70197C15.6517 9.40908 15.6517 8.9342 15.3588 8.64131C15.0659 8.34842 14.591 8.34842 14.2982 8.64131L12.0001 10.9393L9.70198 8.64118C9.40908 8.34829 8.93421 8.34829 8.64132 8.64118C8.34842 8.93407 8.34842 9.40895 8.64132 9.70184L10.9395 12L8.6413 14.2982C8.34841 14.5911 8.34841 15.0659 8.6413 15.3588C8.93419 15.6517 9.40907 15.6517 9.70196 15.3588L12.0001 13.0607L14.2982 15.3587Z"
      fill="white"></path>
  </symbol>


 <symbol viewBox="0 0 24 24" id="telega">
    <path
     d="M19.4654 4.13242C19.4654 4.13242 21.1306 3.48314 20.9918 5.05998C20.9455 5.70927 20.5293 7.98177 20.2055 10.4398L19.0954 17.7211C19.0954 17.7211 19.0029 18.7878 18.1703 18.9733C17.3377 19.1588 16.0889 18.324 15.8576 18.1385C15.6726 17.9994 12.3886 15.9124 11.2323 14.8921C10.9085 14.6138 10.5384 14.0572 11.2785 13.408L16.1352 8.77022C16.6902 8.21367 17.2453 6.9151 14.9326 8.49195L8.45705 12.8978C8.45705 12.8978 7.71699 13.3616 6.3294 12.9442L3.32289 12.0166C3.32289 12.0166 2.2128 11.321 4.10921 10.6253C8.73459 8.44553 14.4238 6.2194 19.4654 4.13242Z"></path>
  </symbol>

 <symbol viewBox="0 0 24 24" id="vkontakte">
   <path

    d="M14.1106 11.5955C13.7449 11.4579 13.7449 10.9328 13.7222 10.5671C13.6308 9.26442 14.0879 7.27569 13.5394 6.43017C13.151 5.92695 11.2764 5.97303 10.1339 6.04178C9.81352 6.08786 9.42513 6.15588 9.15085 6.29339C8.87657 6.4309 8.60229 6.6591 8.60229 6.86463C8.60229 7.16159 9.28836 7.11624 9.53924 7.50462C9.81352 7.91641 9.81352 8.80728 9.81352 9.5387C9.81352 10.3842 9.67601 11.5048 9.33371 11.5501C8.80782 11.5728 8.51086 11.0469 8.23658 10.6585C7.68801 9.90441 7.13945 8.96673 6.72766 8.05245C6.52213 7.57264 6.4073 7.04675 6.11034 6.84122C5.6532 6.52086 4.83036 6.49819 4.03018 6.52086C3.29876 6.54354 2.24698 6.45211 2.04145 6.88657C1.88127 7.36638 2.22431 7.82352 2.40716 8.21264C3.34411 10.2467 4.34981 12.0299 5.58445 13.721C6.72766 15.2979 7.80138 16.5552 9.90421 17.2179C10.4989 17.4007 13.1042 17.9266 13.6301 17.2179C13.8129 16.9436 13.7676 16.3263 13.859 15.8691C13.9504 15.412 14.0645 14.9549 14.499 14.9322C14.8647 14.9095 15.0702 15.2291 15.2992 15.4581C15.5508 15.7097 15.7563 15.9152 15.9392 16.1441C16.3736 16.5786 16.8308 17.1725 17.3793 17.4015C18.1334 17.7218 19.2993 17.6304 20.3964 17.5843C21.288 17.5616 21.928 17.3788 21.9968 16.8529C22.0429 16.4411 21.585 15.8472 21.3107 15.5042C20.6246 14.6586 20.305 14.407 19.5275 13.6295C19.1845 13.2865 18.75 12.9208 18.75 12.5097C18.7273 12.2581 18.9329 12.0299 19.1157 11.7783C19.9159 10.5897 20.7161 9.74423 21.4475 8.50959C21.653 8.14388 22.1335 7.29836 21.9507 6.88657C21.7452 6.42943 20.602 6.56621 19.8932 6.56621C18.9789 6.56621 17.7904 6.49746 17.5614 6.68031C17.127 6.97727 16.9441 7.45781 16.7386 7.91495C16.2815 8.96673 15.6641 10.0405 15.0241 10.8406C14.7952 11.1149 14.3615 11.6861 14.1099 11.5947L14.1106 11.5955Z"></path>
  </symbol>

=

  <symbol viewBox="0 0 24 24" id="whatsapp">
   <path d="M12.375 2C7.1875 2 3 6.1875 3 11.375C3 13.5 3.6875 15.5 5 17.125L3.6875 21.125C3.625 21.375 3.6875 21.625 3.875 21.8125C3.9375 21.9375 4.125 22 4.25 22C4.3125 22 4.4375 22 4.5 21.9375L8.8125 20C9.9375 20.5 11.125 20.75 12.375 20.75C17.5625 20.75 21.75 16.5625 21.75 11.375C21.75 6.1875 17.5625 2 12.375 2ZM17.8125 14.8125C17.5625 15.5625 16.625 16.1875 15.8125 16.3125C15.625 16.375 15.4375 16.375 15.1875 16.375C14.6875 16.375 13.9375 16.25 12.625 15.6875C11.125 15.0625 9.625 13.75 8.4375 12.0625V12C8.0625 11.4375 7.375 10.375 7.375 9.25C7.375 7.875 8.0625 7.1875 8.3125 6.875C8.625 6.5625 9.0625 6.375 9.5625 6.375C9.6875 6.375 9.75 6.375 9.875 6.375C10.3125 6.375 10.625 6.5 10.9375 7.125L11.1875 7.625C11.375 8.125 11.625 8.6875 11.6875 8.75C11.875 9.125 11.875 9.4375 11.6875 9.75C11.625 9.9375 11.5 10.0625 11.375 10.1875C11.3125 10.3125 11.25 10.375 11.1875 10.375C11.125 10.4375 11.125 10.4375 11.0625 10.5C11.25 10.8125 11.625 11.375 12.125 11.8125C12.875 12.5 13.4375 12.6875 13.75 12.8125C13.875 12.6875 14 12.4375 14.1875 12.25L14.25 12.125C14.5625 11.6875 15.0625 11.5625 15.5625 11.75C15.8125 11.875 17.1875 12.5 17.1875 12.5L17.3125 12.5625C17.5 12.6875 17.75 12.75 17.875 13C18.125 13.5625 17.9375 14.375 17.8125 14.8125Z" ></path>
  </symbol>


  <symbol viewBox="0 0 32 10" id="visa">
    <path  d="M15.8442 0.858283L13.7071 11.1758H11.1208L13.2611 0.858283H15.8442ZM26.7239 7.51999L28.0843 3.64501L28.8685 7.51999H26.7239ZM29.6079 11.1758H32L29.913 0.858283H27.7055C27.7023 0.858283 27.6981 0.858283 27.6949 0.858283C27.2051 0.858283 26.7847 1.1678 26.6076 1.60728L26.6044 1.61499L22.7261 11.1758H25.4404L25.9803 9.63372H29.2974L29.6079 11.1758ZM22.8594 7.80748C22.8701 5.08353 19.2115 4.93373 19.2371 3.71661C19.2457 3.34651 19.586 2.95218 20.3329 2.85195C20.4716 2.83763 20.6316 2.82882 20.7938 2.82882C21.5524 2.82882 22.2715 3.00726 22.9117 3.32668L22.8829 3.31347L23.3364 1.12484C22.6183 0.837355 21.7871 0.66993 20.9186 0.666626H20.9176C18.3612 0.666626 16.5634 2.07101 16.5473 4.07899C16.5313 5.56378 17.8309 6.39098 18.8114 6.88665C19.8197 7.39222 20.1579 7.71716 20.1526 8.16766C20.1462 8.86159 19.3502 9.16559 18.6055 9.17771C18.5714 9.17881 18.5297 9.17881 18.4892 9.17881C17.5599 9.17881 16.685 8.93759 15.921 8.51132L15.9499 8.52564L15.4815 10.7859C16.3201 11.1328 17.2921 11.3333 18.3099 11.3333C18.326 11.3333 18.342 11.3333 18.358 11.3333H18.3558C21.0723 11.3333 22.8488 9.94874 22.8584 7.80417L22.8594 7.80748ZM12.1494 0.858283L7.96052 11.1758H5.22699L3.16564 2.94007C3.12617 2.53913 2.88824 2.20428 2.55748 2.03686L2.55108 2.03355C1.81702 1.66126 0.963457 1.35835 0.0704189 1.1678L0 1.15568L0.0618833 0.857181H4.46199C5.06162 0.857181 5.55988 1.30989 5.65271 1.90138L5.65377 1.90799L6.74313 7.87907L9.43398 0.856079L12.1494 0.858283Z" ></path>
  </symbol>

  <symbol viewBox="0 0 22 15" id="master-card">
    <path  d="M11.1187 2.34098C11.9127 2.95451 12.5546 3.7378 12.9956 4.63158C13.4367 5.52536 13.6655 6.50619 13.6646 7.49985C13.6652 8.49318 13.4363 9.47363 12.9952 10.3671C12.5542 11.2605 11.9125 12.0435 11.1187 12.6568C10.3248 12.0434 9.68305 11.2602 9.24199 10.3666C8.80093 9.47302 8.57211 8.49237 8.57287 7.49888C8.57211 6.50539 8.80093 5.52475 9.24199 4.63115C9.68305 3.73755 10.3248 2.95441 11.1187 2.34098ZM10.2655 1.77914C9.42503 2.48537 8.75035 3.36283 8.2881 4.35088C7.82586 5.33892 7.58708 6.41399 7.58826 7.50178C7.58712 8.58909 7.82573 9.66369 8.28762 10.6514C8.74951 11.6391 9.42368 12.5163 10.2636 13.2225C9.24893 13.7832 8.1029 14.0727 6.93938 14.0622C5.77587 14.0518 4.63539 13.7418 3.63131 13.163C2.62724 12.5842 1.79454 11.7568 1.216 10.763C0.63745 9.76924 0.333202 8.64372 0.333496 7.49834C0.333791 6.35295 0.638618 5.22759 1.21768 4.23412C1.79673 3.24064 2.62986 2.41365 3.63423 1.83536C4.6386 1.25707 5.77924 0.947606 6.94276 0.937743C8.10628 0.927881 9.25118 1.21796 10.2655 1.77914ZM11.9739 13.2225C12.8137 12.5163 13.4879 11.6391 13.9498 10.6514C14.4117 9.66369 14.6503 8.58909 14.6492 7.50178C14.6503 6.41399 14.4116 5.33892 13.9493 4.35088C13.4871 3.36283 12.8124 2.48537 11.9719 1.77914C12.9862 1.21796 14.1321 0.927881 15.2956 0.937743C16.4592 0.947606 17.5998 1.25707 18.6042 1.83536C19.6085 2.41365 20.4417 3.24064 21.0207 4.23412C21.5998 5.22759 21.9046 6.35295 21.9049 7.49834C21.9052 8.64372 21.601 9.76924 21.0224 10.763C20.4439 11.7568 19.6112 12.5842 18.6071 13.163C17.603 13.7418 16.4625 14.0518 15.299 14.0622C14.1355 14.0727 12.9895 13.7832 11.9748 13.2225H11.9739Z"></path>
  </symbol>

  <symbol viewBox="0 0 32 10" id="mir">
     <path d="M23.0861 4.40332V9.43757H25.8459V6.45431H28.9737C30.2892 6.44499 31.4069 5.59196 31.8301 4.40332H23.0861Z"></path>
  <path d="M22.7181 0.254517C22.8791 2.31017 24.8018 3.93697 27.1476 3.93697C27.1568 3.93697 31.9451 3.93697 31.9451 3.93697C31.9819 3.75052 32.0003 3.55474 32.0003 3.35431C32.0003 1.64826 30.6434 0.268501 28.9645 0.254517H22.7181Z"></path>
  <path d="M18.6333 3.8857C18.6655 3.82976 18.7161 3.79713 18.7805 3.79713C18.8725 3.79713 18.9415 3.87172 18.9461 3.96028V9.39074H21.7059V0.254517H18.9461C18.5965 0.268501 18.2009 0.524874 18.0537 0.846506L15.8597 5.61972C15.8551 5.63836 15.8459 5.65701 15.8367 5.67565C15.8045 5.72227 15.7493 5.7549 15.6849 5.7549C15.5837 5.7549 15.5009 5.67099 15.5009 5.56844V0.254517H12.7411V9.39074H15.5009C15.8459 9.3721 16.2322 9.11572 16.3794 8.79875L18.6333 3.89968C18.6287 3.89502 18.6333 3.89036 18.6333 3.8857Z"></path>
  <path d="M8.33003 4.04433L6.71554 9.39088H4.72848L3.11859 4.03967C3.10479 3.95576 3.03119 3.89051 2.9392 3.89051C2.838 3.89051 2.75981 3.97441 2.75981 4.0723V9.38622H0V0.25H2.36884H3.07259C3.57855 0.25 4.11212 0.650875 4.25931 1.14032L5.60242 5.59189C5.67141 5.81564 5.7772 5.81098 5.8462 5.59189L7.18931 1.14032C7.3365 0.646214 7.87006 0.25 8.37602 0.25H9.07978H11.4486V9.38622H8.6888V4.0723C8.6888 4.0723 8.6888 4.0723 8.6888 4.06764C8.6888 3.96509 8.60601 3.88584 8.50941 3.88584C8.41742 3.89051 8.34383 3.95576 8.33003 4.04433Z"></path>
  </symbol>



</svg>