<svg width="56" height="48" viewBox="0 0 56 48" fill="none" xmlns="http://www.w3.org/2000/svg">
<path d="M1 16C1 7.71573 7.71573 1 16 1H40C48.2843 1 55 7.71573 55 16V32C55 40.2843 48.2843 47 40 47H16C7.71573 47 1 40.2843 1 32V16Z" stroke="#1C1C1C" stroke-width="2"/>
<path fill-rule="evenodd" clip-rule="evenodd" d="M27.9999 15.85C26.2602 15.85 24.8499 17.2603 24.8499 19C24.8499 20.7397 26.2602 22.15 27.9999 22.15C29.7396 22.15 31.1499 20.7397 31.1499 19C31.1499 17.2603 29.7396 15.85 27.9999 15.85ZM23.1499 19C23.1499 16.3214 25.3213 14.15 27.9999 14.15C30.6785 14.15 32.8499 16.3214 32.8499 19C32.8499 21.6786 30.6785 23.85 27.9999 23.85C25.3213 23.85 23.1499 21.6786 23.1499 19ZM23.4303 27.7854C22.2539 28.3736 21.8499 29.0289 21.8499 29.5C21.8499 29.9711 22.2539 30.6264 23.4303 31.2146C24.5558 31.7774 26.1703 32.15 27.9999 32.15C29.8296 32.15 31.444 31.7774 32.5695 31.2146C33.7459 30.6264 34.1499 29.9711 34.1499 29.5C34.1499 29.0289 33.7459 28.3736 32.5695 27.7854C31.444 27.2226 29.8296 26.85 27.9999 26.85C26.1703 26.85 24.5558 27.2226 23.4303 27.7854ZM22.67 26.2649C24.078 25.5609 25.9636 25.15 27.9999 25.15C30.0362 25.15 31.9218 25.5609 33.3298 26.2649C34.6869 26.9434 35.8499 28.0381 35.8499 29.5C35.8499 30.9619 34.6869 32.0566 33.3298 32.7351C31.9218 33.4391 30.0362 33.85 27.9999 33.85C25.9636 33.85 24.078 33.4391 22.67 32.7351C21.3129 32.0566 20.1499 30.9619 20.1499 29.5C20.1499 28.0381 21.3129 26.9434 22.67 26.2649Z" fill="#1C1C1C"/>
</svg>
