<svg width="8" height="8" viewBox="0 0 8 8" fill="none" xmlns="http://www.w3.org/2000/svg">
<path d="M6.29817 7.3587C6.59106 7.65159 7.06594 7.65159 7.35883 7.3587C7.65172 7.06581 7.65172 6.59093 7.35883 6.29804L5.06079 4L7.35882 1.70198C7.65171 1.40908 7.65171 0.934211 7.35882 0.641318C7.06592 0.348425 6.59105 0.348424 6.29816 0.641318L4.00013 2.93934L1.70198 0.641187C1.40908 0.348293 0.934209 0.348293 0.641316 0.641186C0.348422 0.93408 0.348422 1.40895 0.641316 1.70185L2.93947 4L0.641301 6.29817C0.348408 6.59106 0.348408 7.06594 0.641301 7.35883C0.934194 7.65173 1.40907 7.65173 1.70196 7.35883L4.00013 5.06066L6.29817 7.3587Z" fill="white"/>
</svg>
