<svg width="18" height="15" viewBox="0 0 18 15" fill="none" xmlns="http://www.w3.org/2000/svg">
<path d="M16.4654 0.132424C16.4654 0.132424 18.1306 -0.516862 17.9918 1.05998C17.9455 1.70927 17.5293 3.98177 17.2055 6.4398L16.0954 13.7211C16.0954 13.7211 16.0029 14.7878 15.1703 14.9733C14.3377 15.1588 13.0889 14.324 12.8576 14.1385C12.6726 13.9994 9.38863 11.9124 8.23226 10.8921C7.90848 10.6138 7.53845 10.0572 8.27851 9.40796L13.1352 4.77022C13.6902 4.21367 14.2453 2.9151 11.9326 4.49195L5.45705 8.89783C5.45705 8.89783 4.71699 9.36159 3.3294 8.94421L0.322895 8.01665C0.322895 8.01665 -0.787196 7.32099 1.10921 6.62529C5.73459 4.44553 11.4238 2.2194 16.4654 0.132424Z" fill="#A6A6A6"/>
</svg>
