<svg width="20" height="12" viewBox="0 0 20 12" fill="none" xmlns="http://www.w3.org/2000/svg">
<path d="M12.1106 5.59545C11.7449 5.45794 11.7449 4.93278 11.7222 4.56707C11.6308 3.26442 12.0879 1.27569 11.5394 0.430166C11.151 -0.0730509 9.27636 -0.0269716 8.13388 0.0417819C7.81352 0.0878613 7.42513 0.155884 7.15085 0.293391C6.87657 0.430898 6.60229 0.6591 6.60229 0.864629C6.60229 1.16159 7.28836 1.11624 7.53924 1.50462C7.81352 1.91641 7.81352 2.80728 7.81352 3.5387C7.81352 4.38422 7.67601 5.50475 7.33371 5.5501C6.80782 5.57278 6.51086 5.04689 6.23658 4.6585C5.68801 3.90441 5.13945 2.96673 4.72766 2.05245C4.52213 1.57264 4.4073 1.04675 4.11034 0.841224C3.6532 0.520862 2.83036 0.498188 2.03018 0.520862C1.29876 0.543536 0.246983 0.452109 0.0414545 0.886572C-0.118726 1.36638 0.224309 1.82352 0.407164 2.21264C1.34411 4.24671 2.34981 6.02991 3.58445 7.72096C4.72766 9.2979 5.80138 10.5552 7.90421 11.2179C8.49886 11.4007 11.1042 11.9266 11.6301 11.2179C11.8129 10.9436 11.7676 10.3263 11.859 9.86913C11.9504 9.412 12.0645 8.95486 12.499 8.93219C12.8647 8.90951 13.0702 9.22914 13.2992 9.45808C13.5508 9.70969 13.7563 9.91521 13.9392 10.1441C14.3736 10.5786 14.8308 11.1725 15.3793 11.4015C16.1334 11.7218 17.2993 11.6304 18.3964 11.5843C19.288 11.5616 19.928 11.3788 19.9968 10.8529C20.0429 10.4411 19.585 9.84719 19.3107 9.50416C18.6246 8.65864 18.305 8.40703 17.5275 7.62953C17.1845 7.28649 16.75 6.92078 16.75 6.50972C16.7273 6.25812 16.9329 6.02991 17.1157 5.77831C17.9159 4.58975 18.7161 3.74423 19.4475 2.50959C19.653 2.14388 20.1335 1.29836 19.9507 0.886572C19.7452 0.429435 18.602 0.56621 17.8932 0.56621C16.9789 0.56621 15.7904 0.497456 15.5614 0.680311C15.127 0.977268 14.9441 1.45781 14.7386 1.91495C14.2815 2.96673 13.6641 4.04045 13.0241 4.84063C12.7952 5.11491 12.3615 5.68615 12.1099 5.59472L12.1106 5.59545Z" fill="#A6A6A6"/>
</svg>
