<svg width="284" height="24" viewBox="0 0 284 24" fill="none" xmlns="http://www.w3.org/2000/svg">
<path d="M119.711 4.99801H124.151V9.12601L123.983 9.70201V13.254L124.151 14.31V22.638H119.711V4.99801ZM122.687 11.838C122.927 10.366 123.383 9.09401 124.055 8.02201C124.727 6.95001 125.575 6.11801 126.599 5.52601C127.639 4.91801 128.791 4.61401 130.055 4.61401C131.399 4.61401 132.575 4.91801 133.583 5.52601C134.607 6.13401 135.407 6.98201 135.983 8.07001C136.559 9.14201 136.847 10.398 136.847 11.838C136.847 13.278 136.559 14.542 135.983 15.63C135.407 16.702 134.607 17.542 133.583 18.15C132.575 18.758 131.399 19.062 130.055 19.062C128.775 19.062 127.623 18.766 126.599 18.174C125.591 17.566 124.751 16.726 124.079 15.654C123.407 14.566 122.943 13.294 122.687 11.838ZM132.335 11.838C132.335 11.102 132.183 10.454 131.879 9.89401C131.575 9.31801 131.151 8.87001 130.607 8.55001C130.079 8.21401 129.471 8.04601 128.783 8.04601C128.079 8.04601 127.407 8.21401 126.767 8.55001C126.127 8.87001 125.567 9.31801 125.087 9.89401C124.623 10.454 124.263 11.102 124.007 11.838C124.263 12.574 124.623 13.23 125.087 13.806C125.567 14.366 126.127 14.814 126.767 15.15C127.407 15.47 128.079 15.63 128.783 15.63C129.471 15.63 130.079 15.47 130.607 15.15C131.151 14.814 131.575 14.366 131.879 13.806C132.183 13.23 132.335 12.574 132.335 11.838Z" fill="white"/>
<path d="M100.328 4.99801H104.768V9.12601L104.6 9.70201V13.254L104.768 14.31V22.638H100.328V4.99801ZM103.304 11.838C103.544 10.366 104 9.09401 104.672 8.02201C105.344 6.95001 106.192 6.11801 107.216 5.52601C108.256 4.91801 109.408 4.61401 110.672 4.61401C112.016 4.61401 113.192 4.91801 114.2 5.52601C115.224 6.13401 116.024 6.98201 116.6 8.07001C117.176 9.14201 117.464 10.398 117.464 11.838C117.464 13.278 117.176 14.542 116.6 15.63C116.024 16.702 115.224 17.542 114.2 18.15C113.192 18.758 112.016 19.062 110.672 19.062C109.392 19.062 108.24 18.766 107.216 18.174C106.208 17.566 105.368 16.726 104.696 15.654C104.024 14.566 103.56 13.294 103.304 11.838ZM112.952 11.838C112.952 11.102 112.8 10.454 112.496 9.89401C112.192 9.31801 111.768 8.87001 111.224 8.55001C110.696 8.21401 110.088 8.04601 109.4 8.04601C108.696 8.04601 108.024 8.21401 107.384 8.55001C106.744 8.87001 106.184 9.31801 105.704 9.89401C105.24 10.454 104.88 11.102 104.624 11.838C104.88 12.574 105.24 13.23 105.704 13.806C106.184 14.366 106.744 14.814 107.384 15.15C108.024 15.47 108.696 15.63 109.4 15.63C110.088 15.63 110.696 15.47 111.224 15.15C111.768 14.814 112.192 14.366 112.496 13.806C112.8 13.23 112.952 12.574 112.952 11.838Z" fill="white"/>
<path d="M93.1659 18.678L92.5659 13.71L93.2139 11.838L92.5659 9.99001L93.1659 4.99801H97.7979L96.9579 11.838L97.7979 18.678H93.1659ZM94.2699 11.838C94.0299 13.294 93.5739 14.566 92.9019 15.654C92.2299 16.726 91.3819 17.566 90.3579 18.174C89.3339 18.766 88.1819 19.062 86.9019 19.062C85.5579 19.062 84.3739 18.758 83.3499 18.15C82.3419 17.542 81.5499 16.702 80.9739 15.63C80.3979 14.542 80.1099 13.278 80.1099 11.838C80.1099 10.398 80.3979 9.14201 80.9739 8.07001C81.5499 6.98201 82.3419 6.13401 83.3499 5.52601C84.3739 4.91801 85.5579 4.61401 86.9019 4.61401C88.1819 4.61401 89.3339 4.91801 90.3579 5.52601C91.3819 6.11801 92.2299 6.95001 92.9019 8.02201C93.5899 9.09401 94.0459 10.366 94.2699 11.838ZM84.6219 11.838C84.6219 12.574 84.7739 13.23 85.0779 13.806C85.3819 14.366 85.7979 14.814 86.3259 15.15C86.8699 15.47 87.4939 15.63 88.1979 15.63C88.9019 15.63 89.5659 15.47 90.1899 15.15C90.8299 14.814 91.3899 14.366 91.8699 13.806C92.3499 13.23 92.7099 12.574 92.9499 11.838C92.7099 11.102 92.3499 10.454 91.8699 9.89401C91.3899 9.31801 90.8299 8.87001 90.1899 8.55001C89.5659 8.21401 88.9019 8.04601 88.1979 8.04601C87.4939 8.04601 86.8699 8.21401 86.3259 8.55001C85.7979 8.87001 85.3819 9.31801 85.0779 9.89401C84.7739 10.454 84.6219 11.102 84.6219 11.838Z" fill="white"/>
<path d="M69.8582 19.062C68.1302 19.062 66.6182 18.758 65.3222 18.15C64.0262 17.542 63.0182 16.694 62.2982 15.606C61.5782 14.518 61.2182 13.262 61.2182 11.838C61.2182 10.398 61.5782 9.14201 62.2982 8.07001C63.0182 6.98201 64.0262 6.13401 65.3222 5.52601C66.6342 4.91801 68.1462 4.61401 69.8582 4.61401C71.5862 4.61401 73.0982 4.91801 74.3942 5.52601C75.7062 6.13401 76.7222 6.98201 77.4422 8.07001C78.1622 9.14201 78.5222 10.398 78.5222 11.838C78.5222 13.278 78.1622 14.542 77.4422 15.63C76.7222 16.702 75.7062 17.542 74.3942 18.15C73.0982 18.758 71.5862 19.062 69.8582 19.062ZM69.8582 15.702C70.7382 15.702 71.4822 15.55 72.0902 15.246C72.7142 14.926 73.1862 14.478 73.5062 13.902C73.8422 13.326 74.0102 12.638 74.0102 11.838C74.0102 11.038 73.8422 10.35 73.5062 9.77401C73.1862 9.19801 72.7142 8.75801 72.0902 8.45401C71.4822 8.13401 70.7382 7.97401 69.8582 7.97401C69.0102 7.97401 68.2742 8.13401 67.6502 8.45401C67.0262 8.75801 66.5462 9.19801 66.2102 9.77401C65.8742 10.35 65.7062 11.038 65.7062 11.838C65.7062 12.638 65.8742 13.326 66.2102 13.902C66.5462 14.478 67.0262 14.926 67.6502 15.246C68.2742 15.55 69.0102 15.702 69.8582 15.702Z" fill="white"/>
<path d="M46.8358 8.3101V6.3661L49.6678 5.3341L51.5878 1.3501H54.1318V4.9981H60.0358V8.3101H54.1318V12.8221C54.1318 13.8461 54.3398 14.5661 54.7558 14.9821C55.1718 15.3821 55.9158 15.5821 56.9878 15.5821C57.6758 15.5821 58.2758 15.5261 58.7878 15.4141C59.3158 15.2861 59.8118 15.1181 60.2758 14.9101V18.2941C59.7958 18.4861 59.1638 18.6621 58.3798 18.8221C57.6118 18.9821 56.8118 19.0621 55.9798 19.0621C54.5238 19.0621 53.3238 18.8301 52.3798 18.3661C51.4518 17.9021 50.7638 17.2541 50.3158 16.4221C49.8838 15.5741 49.6678 14.5821 49.6678 13.4461V8.3101H46.8358Z" fill="white"/>
<path d="M46.1263 14.286C46.1263 15.31 45.8223 16.182 45.2143 16.902C44.6223 17.606 43.7503 18.142 42.5983 18.51C41.4463 18.878 40.0463 19.062 38.3983 19.062C36.7183 19.062 35.2463 18.854 33.9823 18.438C32.7183 18.022 31.7343 17.438 31.0303 16.686C30.3263 15.934 29.9503 15.062 29.9023 14.07H34.4383C34.5343 14.47 34.7583 14.822 35.1103 15.126C35.4783 15.43 35.9503 15.662 36.5263 15.822C37.1023 15.966 37.7823 16.038 38.5663 16.038C39.6223 16.038 40.4223 15.926 40.9663 15.702C41.5103 15.478 41.7823 15.142 41.7823 14.694C41.7823 14.358 41.5823 14.102 41.1823 13.926C40.7983 13.75 40.1023 13.622 39.0943 13.542L36.5983 13.35C35.0303 13.238 33.7823 12.99 32.8543 12.606C31.9263 12.222 31.2623 11.734 30.8623 11.142C30.4783 10.55 30.2863 9.88601 30.2863 9.15001C30.2863 8.14201 30.5983 7.30201 31.2223 6.63001C31.8623 5.95801 32.7423 5.45401 33.8623 5.11802C34.9823 4.78201 36.2943 4.61401 37.7983 4.61401C39.3023 4.61401 40.6383 4.81401 41.8063 5.21401C42.9903 5.61401 43.9343 6.16601 44.6383 6.87001C45.3583 7.57401 45.7663 8.39801 45.8623 9.34201H41.3263C41.2623 9.02201 41.0863 8.72601 40.7983 8.45401C40.5263 8.18201 40.1263 7.96601 39.5983 7.80602C39.0863 7.63001 38.4143 7.54201 37.5823 7.54201C36.6383 7.54201 35.9183 7.64601 35.4223 7.85401C34.9263 8.06201 34.6783 8.36601 34.6783 8.76601C34.6783 9.07001 34.8303 9.31001 35.1343 9.48601C35.4383 9.66201 36.0143 9.79001 36.8623 9.87001L40.1023 10.11C41.6383 10.238 42.8383 10.486 43.7023 10.854C44.5823 11.206 45.2063 11.67 45.5743 12.246C45.9423 12.822 46.1263 13.502 46.1263 14.286Z" fill="white"/>
<path d="M21.1054 19.062C19.4734 19.062 18.0094 18.758 16.7134 18.15C15.4334 17.542 14.4254 16.694 13.6894 15.606C12.9534 14.518 12.5854 13.246 12.5854 11.79C12.5854 10.366 12.9374 9.11801 13.6414 8.04601C14.3454 6.97401 15.3134 6.13401 16.5454 5.52601C17.7934 4.91801 19.2014 4.61401 20.7694 4.61401C22.3694 4.61401 23.7454 4.96601 24.8974 5.67001C26.0494 6.37401 26.9374 7.36601 27.5614 8.64601C28.1854 9.92601 28.4974 11.43 28.4974 13.158H16.1614V10.35H26.0494L24.4414 11.358C24.3934 10.606 24.2094 9.97401 23.8894 9.46202C23.5854 8.93401 23.1774 8.53401 22.6654 8.26201C22.1534 7.97401 21.5454 7.83001 20.8414 7.83001C20.0734 7.83001 19.4094 7.98201 18.8494 8.28601C18.2894 8.59001 17.8494 9.01401 17.5294 9.55801C17.2254 10.102 17.0734 10.734 17.0734 11.454C17.0734 12.366 17.2734 13.142 17.6734 13.782C18.0894 14.422 18.6814 14.91 19.4494 15.246C20.2334 15.582 21.1854 15.75 22.3054 15.75C23.3294 15.75 24.3534 15.614 25.3774 15.342C26.4014 15.054 27.3214 14.654 28.1374 14.142V17.046C27.2094 17.686 26.1454 18.182 24.9454 18.534C23.7614 18.886 22.4814 19.062 21.1054 19.062Z" fill="white"/>
<path d="M0 4.99801H4.512L5.328 9.91801V18.678H0.864V9.55801L0 4.99801ZM11.856 4.80602V8.64601C11.424 8.55001 10.992 8.47801 10.56 8.43001C10.144 8.38201 9.76 8.35802 9.408 8.35802C8.64 8.35802 7.944 8.51801 7.32 8.83801C6.712 9.14201 6.224 9.63001 5.856 10.302C5.504 10.974 5.328 11.846 5.328 12.918L4.44 11.814C4.552 10.838 4.736 9.91801 4.992 9.05401C5.248 8.19001 5.6 7.43001 6.048 6.77401C6.496 6.10201 7.048 5.57401 7.704 5.19001C8.376 4.80601 9.184 4.61401 10.128 4.61401C10.4 4.61401 10.688 4.63001 10.992 4.66201C11.296 4.69401 11.584 4.74201 11.856 4.80602Z" fill="white"/>
</svg>
