<svg width="22" height="15" viewBox="0 0 22 15" fill="none" xmlns="http://www.w3.org/2000/svg">
<path d="M11.1187 2.34098C11.9127 2.95451 12.5546 3.7378 12.9956 4.63158C13.4367 5.52536 13.6655 6.50619 13.6646 7.49985C13.6652 8.49318 13.4363 9.47363 12.9952 10.3671C12.5542 11.2605 11.9125 12.0435 11.1187 12.6568C10.3248 12.0434 9.68305 11.2602 9.24199 10.3666C8.80093 9.47302 8.57211 8.49237 8.57287 7.49888C8.57211 6.50539 8.80093 5.52475 9.24199 4.63115C9.68305 3.73755 10.3248 2.95441 11.1187 2.34098ZM10.2655 1.77914C9.42503 2.48537 8.75035 3.36283 8.2881 4.35088C7.82586 5.33892 7.58708 6.41399 7.58826 7.50178C7.58712 8.58909 7.82573 9.66369 8.28762 10.6514C8.74951 11.6391 9.42368 12.5163 10.2636 13.2225C9.24893 13.7832 8.1029 14.0727 6.93938 14.0622C5.77587 14.0518 4.63539 13.7418 3.63131 13.163C2.62724 12.5842 1.79454 11.7568 1.216 10.763C0.63745 9.76924 0.333202 8.64372 0.333496 7.49834C0.333791 6.35295 0.638618 5.22759 1.21768 4.23412C1.79673 3.24064 2.62986 2.41365 3.63423 1.83536C4.6386 1.25707 5.77924 0.947606 6.94276 0.937743C8.10628 0.927881 9.25118 1.21796 10.2655 1.77914ZM11.9739 13.2225C12.8137 12.5163 13.4879 11.6391 13.9498 10.6514C14.4117 9.66369 14.6503 8.58909 14.6492 7.50178C14.6503 6.41399 14.4116 5.33892 13.9493 4.35088C13.4871 3.36283 12.8124 2.48537 11.9719 1.77914C12.9862 1.21796 14.1321 0.927881 15.2956 0.937743C16.4592 0.947606 17.5998 1.25707 18.6042 1.83536C19.6085 2.41365 20.4417 3.24064 21.0207 4.23412C21.5998 5.22759 21.9046 6.35295 21.9049 7.49834C21.9052 8.64372 21.601 9.76924 21.0224 10.763C20.4439 11.7568 19.6112 12.5842 18.6071 13.163C17.603 13.7418 16.4625 14.0518 15.299 14.0622C14.1355 14.0727 12.9895 13.7832 11.9748 13.2225H11.9739Z" fill="#A6A6A6"/>
</svg>
