<svg width="32" height="10" viewBox="0 0 32 10" fill="none" xmlns="http://www.w3.org/2000/svg">
<path d="M23.0861 4.40332V9.43757H25.8459V6.45431H28.9737C30.2892 6.44499 31.4069 5.59196 31.8301 4.40332H23.0861Z" fill="#A6A6A6"/>
<path d="M22.7181 0.254639C22.8791 2.31029 24.8017 3.9371 27.1476 3.9371C27.1568 3.9371 31.945 3.9371 31.945 3.9371C31.9818 3.75064 32.0002 3.55487 32.0002 3.35443C32.0002 1.64838 30.6433 0.268623 28.9645 0.254639H22.7181Z" fill="#A6A6A6"/>
<path d="M18.6332 3.88582C18.6654 3.82989 18.716 3.79726 18.7804 3.79726C18.8724 3.79726 18.9414 3.87184 18.946 3.9604V9.39086H21.7058V0.254639H18.946C18.5964 0.268623 18.2009 0.524996 18.0537 0.846629L15.8596 5.61984C15.855 5.63849 15.8458 5.65713 15.8366 5.67578C15.8044 5.72239 15.7492 5.75502 15.6848 5.75502C15.5836 5.75502 15.5008 5.67111 15.5008 5.56856V0.254639H12.741V9.39086H15.5008C15.8458 9.37222 16.2322 9.11584 16.3794 8.79887L18.6332 3.89981C18.6286 3.89514 18.6332 3.89048 18.6332 3.88582Z" fill="#A6A6A6"/>
<path d="M8.33003 4.04433L6.71554 9.39088H4.72848L3.11859 4.03967C3.10479 3.95576 3.03119 3.89051 2.9392 3.89051C2.838 3.89051 2.75981 3.97441 2.75981 4.0723V9.38622H0V0.25H2.36884H3.07259C3.57855 0.25 4.11212 0.650875 4.25931 1.14032L5.60242 5.59189C5.67141 5.81564 5.7772 5.81098 5.8462 5.59189L7.18931 1.14032C7.3365 0.646214 7.87006 0.25 8.37602 0.25H9.07978H11.4486V9.38622H8.6888V4.0723C8.6888 4.0723 8.6888 4.0723 8.6888 4.06764C8.6888 3.96509 8.60601 3.88584 8.50941 3.88584C8.41742 3.89051 8.34383 3.95576 8.33003 4.04433Z" fill="#A6A6A6"/>
</svg>
