<svg width="32" height="12" viewBox="0 0 32 12" fill="none" xmlns="http://www.w3.org/2000/svg">
<path d="M15.8442 0.858161L13.7071 11.1757H11.1208L13.2611 0.858161H15.8442ZM26.7239 7.51987L28.0843 3.64489L28.8685 7.51987H26.7239ZM29.6079 11.1757H32L29.913 0.858161H27.7055C27.7023 0.858161 27.6981 0.858161 27.6949 0.858161C27.2051 0.858161 26.7847 1.16767 26.6076 1.60716L26.6044 1.61487L22.7261 11.1757H25.4404L25.9803 9.6336H29.2974L29.6079 11.1757ZM22.8594 7.80735C22.8701 5.08341 19.2115 4.93361 19.2371 3.71648C19.2457 3.34639 19.586 2.95206 20.3329 2.85183C20.4716 2.83751 20.6316 2.8287 20.7938 2.8287C21.5524 2.8287 22.2715 3.00713 22.9117 3.32656L22.8829 3.31334L23.3364 1.12472C22.6183 0.837233 21.7871 0.669808 20.9186 0.666504H20.9176C18.3612 0.666504 16.5634 2.07088 16.5473 4.07887C16.5313 5.56365 17.8309 6.39086 18.8114 6.88652C19.8197 7.3921 20.1579 7.71703 20.1526 8.16754C20.1462 8.86146 19.3502 9.16547 18.6055 9.17759C18.5714 9.17869 18.5297 9.17869 18.4892 9.17869C17.5599 9.17869 16.685 8.93747 15.921 8.5112L15.9499 8.52552L15.4815 10.7857C16.3201 11.1327 17.2921 11.3332 18.3099 11.3332C18.326 11.3332 18.342 11.3332 18.358 11.3332H18.3558C21.0723 11.3332 22.8488 9.94862 22.8584 7.80405L22.8594 7.80735ZM12.1494 0.858161L7.96052 11.1757H5.22699L3.16564 2.93994C3.12617 2.53901 2.88824 2.20416 2.55748 2.03674L2.55108 2.03343C1.81702 1.66113 0.963457 1.35823 0.0704189 1.16767L0 1.15556L0.0618833 0.857059H4.46199C5.06162 0.857059 5.55988 1.30976 5.65271 1.90126L5.65377 1.90786L6.74313 7.87895L9.43398 0.855957L12.1494 0.858161Z" fill="#A6A6A6"/>
</svg>
